<svg xmlns="http://www.w3.org/2000/svg" viewBox="0 0 1000 1000">
  <path fill="#2E77BC" d="M0 184.6h1000v630.8H0z"/>
  <path fill="#FFF" d="M495.5 584.6l41.7-45.8-41.7-45.8h-66.7v29.2h-45.8v-87.5H300l-25 58.3-25-58.3h-87.5v145.8h58.3V522l33.3 75h33.3l33.3-75v108.3h58.3v-29.2h66.7zm-250-58.3l-37.5-87.5h37.5l37.5 87.5h-37.5zm458.3 58.3l41.7-45.8-41.7-45.8h-66.7v29.2h-45.8v-87.5h-83.3l-25 58.3-25-58.3h-87.5v145.8h58.3V522l33.3 75h33.3l33.3-75v108.3h58.3v-29.2h66.7zm-250-58.3l-37.5-87.5h37.5l37.5 87.5h-37.5z"/>
</svg> 