<svg xmlns="http://www.w3.org/2000/svg" viewBox="0 0 1000 618">
  <path fill="#FF5F00" d="M380.2 268.6h239.6v380.9H380.2z"/>
  <path fill="#EB001B" d="M395.9 459c0-77.1 36.1-145.8 92.3-190.4C443.5 233.4 387.9 217 328 217 182.8 217 65.2 334.6 65.2 479.8S182.8 742.6 328 742.6c59.9 0 115.5-16.4 160.2-51.6-56.2-44.2-92.3-113-92.3-190.1"/>
  <path fill="#F79E1B" d="M934.8 459c0 145.2-117.6 262.8-262.8 262.8-59.9 0-115.5-16.4-160.2-51.6 56.6-44.6 92.3-113.3 92.3-190.4s-35.7-145.8-92.3-190.4c44.7-35.2 100.3-51.6 160.2-51.6 145.2 0 262.8 117.6 262.8 262.8"/>
</svg> 