<svg xmlns="http://www.w3.org/2000/svg" viewBox="0 0 1000 324">
  <path fill="#1434CB" d="M651.19 0.43H348.81C156.15 0.43 0 35.17 0 77.61v168.77c0 42.44 156.15 77.19 348.81 77.19h302.38c192.66 0 348.81-34.75 348.81-77.19V77.61C1000 35.17 843.85 0.43 651.19 0.43z"/>
  <path fill="#FFF" d="M379.77 140.39l-33.85 158.41h-40.87l33.85-158.41h40.87zm191.33 102.34l21.54-59.35 12.4 59.35h-33.94zm45.67 56.07h37.76l-32.95-158.41h-34.86c-7.85 0-14.47 4.57-17.37 11.61l-61.19 146.8h42.87l8.5-23.53h52.27l5.97 23.53zm-135.26-52.71c0.2-43.74-60.45-46.13-60.05-65.66 0.1-5.93 5.78-12.26 18.18-13.87 6.13-0.8 23.11-1.41 42.37 7.35l7.55-35.24c-10.32-3.72-23.61-7.35-40.17-7.35-42.47 0-72.33 22.53-72.63 54.82-0.4 23.84 21.34 37.21 37.66 45.16 16.72 8.15 22.31 13.38 22.21 20.63-0.2 11.16-13.29 16.03-25.59 16.23-21.54 0.3-33.95-5.83-43.97-10.5l-7.75 36.14c10.02 4.57 28.5 8.55 47.67 8.75 45.07 0 74.57-22.23 74.77-56.71z"/>
</svg> 